<svg xmlns="http://www.w3.org/2000/svg" xmlns:xlink="http://www.w3.org/1999/xlink" width="375" zoomAndPan="magnify" viewBox="0 0 281.25 281.249989" height="375" preserveAspectRatio="xMidYMid meet" version="1.0"><defs><clipPath id="079cbc1c43"><path d="M 0 0 L 280.503906 0 L 280.503906 280.503906 L 0 280.503906 Z M 0 0 " clip-rule="nonzero"/></clipPath><clipPath id="e6713d9e46"><path d="M 29.039062 29.039062 L 251.195312 29.039062 L 251.195312 251.195312 L 29.039062 251.195312 Z M 29.039062 29.039062 " clip-rule="nonzero"/></clipPath></defs><g clip-path="url(#079cbc1c43)"><path fill="#ffffff" d="M 0 0 L 280.503906 0 L 280.503906 280.503906 L 0 280.503906 Z M 0 0 " fill-opacity="1" fill-rule="nonzero"/><path fill="#ffffff" d="M 0 0 L 280.503906 0 L 280.503906 280.503906 L 0 280.503906 Z M 0 0 " fill-opacity="1" fill-rule="nonzero"/></g><path fill="#000000" d="M 172.902344 133.242188 C 172.902344 134.542969 172.839844 135.835938 172.710938 137.128906 C 172.585938 138.421875 172.394531 139.703125 172.140625 140.980469 C 171.886719 142.253906 171.570312 143.511719 171.195312 144.753906 C 170.816406 146 170.382812 147.21875 169.886719 148.417969 C 169.386719 149.617188 168.832031 150.792969 168.21875 151.9375 C 167.605469 153.082031 166.941406 154.195312 166.21875 155.273438 C 165.496094 156.355469 164.726562 157.398438 163.902344 158.402344 C 163.078125 159.40625 162.203125 160.367188 161.285156 161.285156 C 160.367188 162.203125 159.40625 163.078125 158.402344 163.902344 C 157.398438 164.726562 156.355469 165.496094 155.273438 166.21875 C 154.195312 166.941406 153.082031 167.605469 151.9375 168.21875 C 150.792969 168.832031 149.617188 169.386719 148.417969 169.886719 C 147.21875 170.382812 146 170.816406 144.753906 171.195312 C 143.511719 171.570312 142.253906 171.886719 140.980469 172.140625 C 139.703125 172.394531 138.421875 172.585938 137.128906 172.710938 C 135.835938 172.839844 134.542969 172.902344 133.242188 172.902344 C 131.941406 172.902344 130.648438 172.839844 129.355469 172.710938 C 128.0625 172.585938 126.777344 172.394531 125.503906 172.140625 C 124.230469 171.886719 122.972656 171.570312 121.730469 171.195312 C 120.484375 170.816406 119.261719 170.382812 118.066406 169.886719 C 116.863281 169.386719 115.691406 168.832031 114.542969 168.21875 C 113.398438 167.605469 112.285156 166.941406 111.207031 166.21875 C 110.125 165.496094 109.085938 164.726562 108.082031 163.902344 C 107.074219 163.078125 106.113281 162.203125 105.195312 161.285156 C 104.28125 160.367188 103.40625 159.40625 102.582031 158.402344 C 101.757812 157.398438 100.988281 156.355469 100.265625 155.273438 C 99.542969 154.195312 98.875 153.082031 98.261719 151.9375 C 97.648438 150.792969 97.097656 149.617188 96.597656 148.417969 C 96.101562 147.21875 95.664062 146 95.289062 144.753906 C 94.910156 143.511719 94.597656 142.253906 94.34375 140.980469 C 94.089844 139.703125 93.898438 138.421875 93.773438 137.128906 C 93.644531 135.835938 93.578125 134.542969 93.578125 133.242188 C 93.578125 131.941406 93.644531 130.648438 93.773438 129.355469 C 93.898438 128.0625 94.089844 126.777344 94.34375 125.503906 C 94.597656 124.230469 94.910156 122.972656 95.289062 121.730469 C 95.664062 120.484375 96.101562 119.261719 96.597656 118.066406 C 97.097656 116.863281 97.648438 115.691406 98.261719 114.542969 C 98.875 113.398438 99.542969 112.285156 100.265625 111.207031 C 100.988281 110.125 101.757812 109.085938 102.582031 108.082031 C 103.40625 107.074219 104.28125 106.113281 105.195312 105.195312 C 106.113281 104.28125 107.074219 103.40625 108.082031 102.582031 C 109.085938 101.757812 110.125 100.988281 111.207031 100.265625 C 112.285156 99.542969 113.398438 98.875 114.542969 98.261719 C 115.691406 97.648438 116.863281 97.097656 118.066406 96.597656 C 119.261719 96.101562 120.484375 95.664062 121.730469 95.289062 C 122.972656 94.910156 124.230469 94.597656 125.503906 94.34375 C 126.777344 94.089844 128.0625 93.898438 129.355469 93.773438 C 130.648438 93.644531 131.941406 93.578125 133.242188 93.578125 C 134.542969 93.578125 135.835938 93.644531 137.128906 93.773438 C 138.421875 93.898438 139.703125 94.089844 140.980469 94.34375 C 142.253906 94.597656 143.511719 94.910156 144.753906 95.289062 C 146 95.664062 147.21875 96.101562 148.417969 96.597656 C 149.617188 97.097656 150.792969 97.648438 151.9375 98.261719 C 153.082031 98.875 154.195312 99.542969 155.273438 100.265625 C 156.355469 100.988281 157.398438 101.757812 158.402344 102.582031 C 159.40625 103.40625 160.367188 104.28125 161.285156 105.195312 C 162.203125 106.113281 163.078125 107.074219 163.902344 108.082031 C 164.726562 109.085938 165.496094 110.125 166.21875 111.207031 C 166.941406 112.285156 167.605469 113.398438 168.21875 114.542969 C 168.832031 115.691406 169.386719 116.863281 169.886719 118.066406 C 170.382812 119.261719 170.816406 120.484375 171.195312 121.730469 C 171.570312 122.972656 171.886719 124.230469 172.140625 125.503906 C 172.394531 126.777344 172.585938 128.0625 172.710938 129.355469 C 172.839844 130.648438 172.902344 131.941406 172.902344 133.242188 Z M 172.902344 133.242188 " fill-opacity="1" fill-rule="nonzero"/><g clip-path="url(#e6713d9e46)"><path fill="#000000" d="M 140.117188 29.039062 C 78.769531 29.039062 29.039062 78.769531 29.039062 140.117188 C 29.039062 201.460938 78.769531 251.195312 140.117188 251.195312 C 201.464844 251.195312 251.195312 201.460938 251.195312 140.117188 C 251.195312 78.769531 201.464844 29.039062 140.117188 29.039062 Z M 204.707031 204.707031 C 200.578125 208.835938 193.878906 208.835938 189.75 204.707031 L 168.109375 183.070312 C 158.261719 189.972656 146.273438 194.035156 133.335938 194.054688 C 100.203125 194.105469 72.972656 167.371094 72.4375 134.246094 C 71.882812 99.863281 99.863281 71.878906 134.246094 72.433594 C 167.371094 72.972656 194.105469 100.203125 194.054688 133.335938 C 194.035156 146.273438 189.972656 158.261719 183.070312 168.109375 L 204.707031 189.75 C 208.835938 193.878906 208.835938 200.578125 204.707031 204.707031 Z M 204.707031 204.707031 " fill-opacity="1" fill-rule="nonzero"/></g></svg>
