<svg xmlns="http://www.w3.org/2000/svg" xmlns:xlink="http://www.w3.org/1999/xlink" width="500" height="500" viewBox="0 0 375 374.999991" preserveAspectRatio="xMidYMid meet" version="1.0">
  <path fill="currentColor" d="M 252.613281 234.316406 C 269.859375 214.070312 279.332031 188.679688 279.332031 161.800781 C 279.332031 131.832031 267.640625 103.660156 246.425781 82.472656 C 225.210938 61.28125 197.003906 49.609375 166.992188 49.609375 C 136.988281 49.609375 108.785156 61.28125 87.570312 82.472656 C 43.78125 126.214844 43.78125 197.390625 87.570312 241.128906 C 108.785156 262.320312 136.988281 273.992188 166.992188 273.992188 C 193.910156 273.992188 219.332031 264.535156 239.605469 247.3125 L 315.003906 322.628906 C 316.800781 324.421875 319.15625 325.320312 321.511719 325.320312 C 323.863281 325.320312 326.21875 324.421875 328.015625 322.628906 C 331.609375 319.039062 331.609375 313.222656 328.015625 309.632812 Z M 100.582031 228.132812 C 63.964844 191.5625 63.964844 132.042969 100.582031 95.46875 C 137.195312 58.902344 196.78125 58.886719 233.414062 95.46875 C 251.152344 113.1875 260.929688 136.742188 260.929688 161.800781 C 260.929688 186.859375 251.152344 210.417969 233.414062 228.132812 C 196.78125 264.722656 137.195312 264.703125 100.582031 228.132812 Z M 100.582031 228.132812 " fill-opacity="1" fill-rule="nonzero"/>
</svg>
