<svg xmlns="http://www.w3.org/2000/svg" xmlns:xlink="http://www.w3.org/1999/xlink" width="500" zoomAndPan="magnify" viewBox="0 0 375 374.999991" height="500" preserveAspectRatio="xMidYMid meet" version="1.0"><defs><clipPath id="ab0540a692"><path d="M 208 88.679688 L 260 88.679688 L 260 215 L 208 215 Z M 208 88.679688 " clip-rule="nonzero"/></clipPath><clipPath id="670739efe3"><path d="M 53.789062 121 L 321 121 L 321 286.679688 L 53.789062 286.679688 Z M 53.789062 121 " clip-rule="nonzero"/></clipPath></defs><path fill="#000000" d="M 97.875 198.160156 L 98.125 198.160156 C 100.15625 198.234375 102.074219 199.160156 103.398438 200.683594 L 125.195312 225.917969 L 125.195312 151.351562 L 74.289062 151.351562 L 74.289062 218.714844 L 92.707031 200.296875 C 94.078125 198.914062 95.917969 198.160156 97.875 198.160156 Z M 97.875 198.160156 " fill-opacity="1" fill-rule="nonzero"/><path fill="#000000" d="M 192.417969 230.546875 L 192.417969 195.730469 L 141.511719 195.730469 L 141.511719 244.804688 L 158.332031 264.277344 Z M 192.417969 230.546875 " fill-opacity="1" fill-rule="nonzero"/><g clip-path="url(#ab0540a692)"><path fill="#000000" d="M 259.648438 88.695312 L 208.742188 88.695312 L 208.742188 214.398438 L 259.648438 164.023438 Z M 259.648438 88.695312 " fill-opacity="1" fill-rule="nonzero"/></g><g clip-path="url(#670739efe3)"><path fill="#000000" d="M 320.019531 123.109375 C 319.128906 122.09375 317.773438 121.625 316.441406 121.867188 L 282.808594 128.097656 C 280.722656 128.484375 279.347656 130.488281 279.734375 132.574219 C 280.121094 134.660156 282.121094 136.035156 284.207031 135.644531 L 304.609375 131.871094 L 158.136719 276.8125 L 100.773438 210.40625 C 100.078125 209.597656 99.074219 209.121094 98.011719 209.078125 C 96.945312 209.046875 95.910156 209.449219 95.152344 210.207031 L 53.789062 251.570312 L 53.789062 262.425781 L 97.664062 218.546875 L 155.011719 284.9375 C 155.707031 285.738281 156.703125 286.21875 157.765625 286.257812 C 158.828125 286.292969 159.863281 285.902344 160.617188 285.15625 L 309.019531 138.300781 L 302.957031 157.105469 C 302.304688 159.117188 303.414062 161.285156 305.429688 161.9375 C 305.820312 162.0625 306.21875 162.121094 306.613281 162.121094 C 308.230469 162.121094 309.734375 161.085938 310.261719 159.460938 L 320.789062 126.820312 C 321.207031 125.53125 320.917969 124.121094 320.019531 123.105469 Z M 320.019531 123.109375 " fill-opacity="1" fill-rule="nonzero"/></g></svg>