<svg xmlns="http://www.w3.org/2000/svg" xmlns:xlink="http://www.w3.org/1999/xlink" width="500" zoomAndPan="magnify" viewBox="0 0 375 374.999991" height="500" preserveAspectRatio="xMidYMid meet" version="1.0"><defs><clipPath id="bd7390ae04"><path d="M 46.347656 93 L 328.347656 93 L 328.347656 329 L 46.347656 329 Z M 46.347656 93 " clip-rule="nonzero"/></clipPath><clipPath id="85cc4271ce"><path d="M 225 45.679688 L 276 45.679688 L 276 190 L 225 190 Z M 225 45.679688 " clip-rule="nonzero"/></clipPath></defs><g clip-path="url(#bd7390ae04)"><path fill="#000000" d="M 328.320312 93.539062 L 323.070312 188.957031 L 308.265625 179.347656 C 307.980469 179.167969 307.683594 179.015625 307.371094 178.894531 C 307.054688 178.773438 306.734375 178.6875 306.402344 178.632812 C 306.066406 178.578125 305.734375 178.5625 305.398438 178.578125 C 305.0625 178.59375 304.730469 178.648438 304.40625 178.734375 C 304.082031 178.820312 303.769531 178.9375 303.46875 179.089844 C 303.167969 179.242188 302.886719 179.421875 302.625 179.632812 C 302.359375 179.84375 302.121094 180.078125 301.910156 180.335938 C 301.695312 180.597656 301.511719 180.878906 301.355469 181.175781 C 297.878906 187.886719 293.011719 195.757812 286.480469 205.222656 C 286.46875 205.238281 286.460938 205.253906 286.449219 205.265625 C 275.699219 221.238281 267.386719 232.167969 260.296875 239.667969 L 260.160156 239.820312 C 248.296875 253.507812 236.953125 264.375 225.484375 273.039062 L 203.246094 289.265625 C 192.398438 296.09375 183.179688 301.179688 175.0625 304.8125 L 174.859375 304.914062 C 167.714844 308.523438 158.207031 312.195312 144.882812 316.464844 C 131.347656 320.53125 121.324219 322.992188 113.367188 324.207031 C 113.273438 324.21875 113.179688 324.238281 113.085938 324.257812 C 105.707031 325.828125 95.992188 327.078125 82.519531 328.191406 C 71.859375 328.972656 60 329.164062 46.335938 328.773438 C 53.414062 327.34375 60.40625 325.734375 67.316406 323.941406 L 67.8125 323.8125 C 88.628906 318.429688 108.820312 311.277344 128.386719 302.359375 C 128.460938 302.332031 128.53125 302.300781 128.597656 302.265625 L 129.210938 301.984375 L 129.453125 301.863281 C 149.101562 291.457031 166.15625 280.886719 181.074219 269.816406 L 181.230469 269.703125 L 181.28125 269.664062 C 181.300781 269.652344 181.320312 269.640625 181.335938 269.625 C 186.589844 265.726562 191.570312 261.765625 196.324219 257.722656 C 212.269531 244.535156 229.257812 226.214844 248.253906 201.707031 C 258.316406 188.734375 267.015625 175.671875 274.117188 162.875 C 274.410156 162.351562 274.597656 161.789062 274.679688 161.195312 C 274.765625 160.597656 274.738281 160.007812 274.601562 159.421875 C 274.464844 158.835938 274.222656 158.292969 273.882812 157.796875 C 273.542969 157.300781 273.125 156.882812 272.628906 156.542969 L 257.015625 145.804688 C 257.257812 145.601562 257.511719 145.414062 257.78125 145.25 L 258.027344 145.078125 L 283.207031 126.617188 Z M 328.320312 93.539062 " fill-opacity="1" fill-rule="nonzero"/></g><path fill="#000000" d="M 121.71875 169.417969 L 121.71875 294.796875 C 105.339844 302.101562 88.507812 308.136719 71.21875 312.910156 L 71.21875 168.839844 C 71.21875 165.410156 73.550781 162.621094 76.390625 162.621094 L 116.023438 162.621094 C 116.371094 162.617188 116.714844 162.65625 117.054688 162.738281 L 117.09375 162.738281 C 119.761719 163.359375 121.71875 166.160156 121.71875 169.417969 Z M 121.71875 169.417969 " fill-opacity="1" fill-rule="nonzero"/><path fill="#000000" d="M 173.480469 128.007812 L 173.480469 263.4375 C 161.054688 272.507812 147.105469 281.261719 131.34375 289.894531 L 131.34375 169.417969 C 131.34375 163.160156 127.988281 157.527344 122.976562 154.769531 L 122.976562 127.441406 C 122.976562 123.894531 125.34375 121.003906 128.25 121.003906 L 167.679688 121.003906 C 168.824219 121.019531 169.847656 121.378906 170.746094 122.085938 C 172.457031 123.378906 173.480469 125.605469 173.480469 128.007812 Z M 173.480469 128.007812 " fill-opacity="1" fill-rule="nonzero"/><path fill="#000000" d="M 235.429688 86.652344 L 235.429688 202.414062 C 218.972656 223.0625 204.101562 238.773438 190.160156 250.320312 L 190.101562 250.363281 C 187.835938 252.292969 185.503906 254.210938 183.109375 256.109375 L 183.109375 128.007812 C 183.117188 125.902344 182.757812 123.859375 182.027344 121.878906 C 181.292969 119.902344 180.238281 118.117188 178.859375 116.523438 L 178.859375 86.074219 C 178.859375 85.664062 178.902344 85.257812 178.988281 84.855469 C 179.070312 84.453125 179.191406 84.0625 179.351562 83.683594 C 179.511719 83.308594 179.707031 82.949219 179.9375 82.609375 C 180.164062 82.269531 180.425781 81.953125 180.71875 81.664062 C 181.011719 81.375 181.328125 81.121094 181.671875 80.894531 C 182.015625 80.667969 182.375 80.476562 182.753906 80.320312 C 183.136719 80.167969 183.527344 80.050781 183.929688 79.972656 C 184.332031 79.894531 184.738281 79.855469 185.148438 79.859375 L 228.558594 79.859375 C 229.003906 79.855469 229.449219 79.898438 229.890625 79.984375 C 230.332031 80.070312 230.757812 80.195312 231.171875 80.363281 C 231.589844 80.535156 231.984375 80.742188 232.359375 80.988281 C 232.730469 81.238281 233.078125 81.515625 233.398438 81.832031 C 233.71875 82.148438 234.003906 82.492188 234.253906 82.863281 C 234.503906 83.234375 234.71875 83.625 234.894531 84.039062 C 235.066406 84.453125 235.199219 84.878906 235.289062 85.320312 C 235.382812 85.757812 235.429688 86.203125 235.429688 86.652344 Z M 235.429688 86.652344 " fill-opacity="1" fill-rule="nonzero"/><g clip-path="url(#85cc4271ce)"><path fill="#000000" d="M 247.226562 149.285156 C 247.519531 150.484375 248.171875 151.433594 249.1875 152.132812 L 263.527344 162.003906 C 257.90625 171.667969 251.757812 180.980469 245.074219 189.945312 L 245.074219 86.652344 C 245.070312 86.113281 245.042969 85.574219 244.988281 85.035156 C 244.933594 84.5 244.851562 83.964844 244.746094 83.4375 C 244.636719 82.910156 244.507812 82.386719 244.347656 81.871094 C 244.1875 81.355469 244.007812 80.847656 243.796875 80.347656 C 243.589844 79.851562 243.359375 79.363281 243.101562 78.890625 C 242.847656 78.414062 242.570312 77.953125 242.269531 77.503906 C 241.96875 77.054688 241.644531 76.625 241.300781 76.207031 C 240.957031 75.792969 240.59375 75.394531 240.214844 75.011719 C 239.832031 74.632812 239.429688 74.269531 239.011719 73.929688 C 238.59375 73.585938 238.160156 73.269531 237.710938 72.96875 C 237.261719 72.667969 236.800781 72.394531 236.324219 72.140625 C 235.847656 71.886719 235.359375 71.65625 234.863281 71.453125 C 234.363281 71.246094 233.855469 71.066406 233.339844 70.910156 C 232.824219 70.753906 232.300781 70.625 231.769531 70.519531 C 231.242188 70.414062 230.707031 70.335938 230.171875 70.285156 C 229.632812 70.234375 229.097656 70.207031 228.558594 70.207031 L 225.632812 70.207031 L 225.632812 51.90625 C 225.632812 48.484375 227.964844 45.691406 230.804688 45.691406 L 269.804688 45.691406 C 272.949219 45.691406 275.5 48.742188 275.5 52.488281 L 275.5 120.300781 L 252.445312 137.207031 C 247.984375 140.128906 246.085938 144.519531 247.226562 149.285156 Z M 247.226562 149.285156 " fill-opacity="1" fill-rule="nonzero"/></g></svg>