<svg xmlns="http://www.w3.org/2000/svg" xmlns:xlink="http://www.w3.org/1999/xlink" width="500" zoomAndPan="magnify" viewBox="0 0 375 374.999991" height="500" preserveAspectRatio="xMidYMid meet" version="1.0">
  <defs>
    <clipPath id="3ebed48167">
      <path d="M 38.820312 38.820312 L 335.820312 38.820312 L 335.820312 335.820312 L 38.820312 335.820312 Z M 38.820312 38.820312 " clip-rule="nonzero"/>
    </clipPath>
  </defs>
  <path fill="#ffffff" d="M 231.152344 178.128906 C 231.152344 179.867188 231.066406 181.597656 230.894531 183.324219 C 230.726562 185.054688 230.472656 186.769531 230.132812 188.472656 C 229.792969 190.175781 229.371094 191.859375 228.867188 193.519531 C 228.363281 195.183594 227.78125 196.816406 227.117188 198.417969 C 226.449219 200.023438 225.710938 201.59375 224.890625 203.125 C 224.070312 204.65625 223.179688 206.144531 222.214844 207.585938 C 221.25 209.03125 220.21875 210.421875 219.117188 211.765625 C 218.015625 213.109375 216.847656 214.394531 215.621094 215.621094 C 214.394531 216.847656 213.109375 218.015625 211.765625 219.117188 C 210.421875 220.21875 209.03125 221.25 207.585938 222.214844 C 206.144531 223.179688 204.65625 224.070312 203.125 224.890625 C 201.59375 225.710938 200.023438 226.449219 198.417969 227.117188 C 196.816406 227.78125 195.183594 228.363281 193.519531 228.867188 C 191.859375 229.371094 190.175781 229.792969 188.472656 230.132812 C 186.769531 230.472656 185.054688 230.726562 183.324219 230.894531 C 181.597656 231.066406 179.867188 231.152344 178.128906 231.152344 C 176.390625 231.152344 174.660156 231.066406 172.933594 230.894531 C 171.203125 230.726562 169.488281 230.472656 167.785156 230.132812 C 166.082031 229.792969 164.398438 229.371094 162.738281 228.867188 C 161.074219 228.363281 159.441406 227.78125 157.839844 227.117188 C 156.234375 226.449219 154.664062 225.710938 153.132812 224.890625 C 151.601562 224.070312 150.113281 223.179688 148.671875 222.214844 C 147.226562 221.25 145.835938 220.21875 144.492188 219.117188 C 143.148438 218.015625 141.863281 216.847656 140.636719 215.621094 C 139.410156 214.394531 138.242188 213.109375 137.140625 211.765625 C 136.039062 210.421875 135.007812 209.03125 134.042969 207.585938 C 133.078125 206.144531 132.1875 204.65625 131.367188 203.125 C 130.546875 201.59375 129.808594 200.023438 129.140625 198.417969 C 128.476562 196.816406 127.894531 195.183594 127.390625 193.519531 C 126.886719 191.859375 126.464844 190.175781 126.125 188.472656 C 125.785156 186.769531 125.53125 185.054688 125.363281 183.324219 C 125.191406 181.597656 125.105469 179.867188 125.105469 178.128906 C 125.105469 176.390625 125.191406 174.660156 125.363281 172.933594 C 125.53125 171.203125 125.785156 169.488281 126.125 167.785156 C 126.464844 166.082031 126.886719 164.398438 127.390625 162.738281 C 127.894531 161.074219 128.476562 159.441406 129.140625 157.839844 C 129.808594 156.234375 130.546875 154.664062 131.367188 153.132812 C 132.1875 151.601562 133.078125 150.113281 134.042969 148.671875 C 135.007812 147.226562 136.039062 145.835938 137.140625 144.492188 C 138.242188 143.148438 139.410156 141.863281 140.636719 140.636719 C 141.863281 139.410156 143.148438 138.242188 144.492188 137.140625 C 145.835938 136.039062 147.226562 135.007812 148.671875 134.042969 C 150.113281 133.078125 151.601562 132.1875 153.132812 131.367188 C 154.664062 130.546875 156.234375 129.808594 157.839844 129.140625 C 159.441406 128.476562 161.074219 127.894531 162.738281 127.390625 C 164.398438 126.886719 166.082031 126.464844 167.785156 126.125 C 169.488281 125.785156 171.203125 125.53125 172.933594 125.363281 C 174.660156 125.191406 176.390625 125.105469 178.128906 125.105469 C 179.867188 125.105469 181.597656 125.191406 183.324219 125.363281 C 185.054688 125.53125 186.769531 125.785156 188.472656 126.125 C 190.175781 126.464844 191.859375 126.886719 193.519531 127.390625 C 195.183594 127.894531 196.816406 128.476562 198.417969 129.140625 C 200.023438 129.808594 201.59375 130.546875 203.125 131.367188 C 204.65625 132.1875 206.144531 133.078125 207.585938 134.042969 C 209.03125 135.007812 210.421875 136.039062 211.765625 137.140625 C 213.109375 138.242188 214.394531 139.410156 215.621094 140.636719 C 216.847656 141.863281 218.015625 143.148438 219.117188 144.492188 C 220.21875 145.835938 221.25 147.226562 222.214844 148.671875 C 223.179688 150.113281 224.070312 151.601562 224.890625 153.132812 C 225.710938 154.664062 226.449219 156.234375 227.117188 157.839844 C 227.78125 159.441406 228.363281 161.074219 228.867188 162.738281 C 229.371094 164.398438 229.792969 166.082031 230.132812 167.785156 C 230.472656 169.488281 230.726562 171.203125 230.894531 172.933594 C 231.066406 174.660156 231.152344 176.390625 231.152344 178.128906 Z M 231.152344 178.128906 " fill-opacity="1" fill-rule="nonzero"/>
  <g clip-path="url(#3ebed48167)">
    <path fill="#ffffff" d="M 187.320312 38.820312 C 105.304688 38.820312 38.820312 105.304688 38.820312 187.320312 C 38.820312 269.332031 105.304688 335.820312 187.320312 335.820312 C 269.335938 335.820312 335.820312 269.332031 335.820312 187.320312 C 335.820312 105.304688 269.335938 38.820312 187.320312 38.820312 Z M 273.671875 273.671875 C 268.148438 279.191406 259.195312 279.191406 253.675781 273.671875 L 224.746094 244.742188 C 211.578125 253.972656 195.550781 259.402344 178.253906 259.429688 C 133.960938 259.496094 97.554688 223.757812 96.839844 179.472656 C 96.097656 133.507812 133.507812 96.09375 179.472656 96.835938 C 223.757812 97.554688 259.496094 133.960938 259.429688 178.253906 C 259.402344 195.550781 253.972656 211.578125 244.742188 224.746094 L 273.671875 253.675781 C 279.191406 259.195312 279.191406 268.148438 273.671875 273.671875 Z M 273.671875 273.671875 " fill-opacity="1" fill-rule="nonzero"/>
  </g>
</svg>
